 <svg  version="1.0" xmlns="http://www.w3.org/2000/svg"  width="300.000000pt" height="169.000000pt" viewBox="0 0 300.000000 169.000000"  preserveAspectRatio="xMidYMid meet">  <g transform="translate(0.000000,169.000000) scale(0.100000,-0.100000)" fill="#7b44f2" stroke="none"> <path d="M496 1396 c15 -70 65 -209 102 -282 90 -178 207 -251 318 -198 46 22 122 107 162 182 31 58 112 287 112 316 0 10 -15 13 -57 12 l-58 -2 -27 -84 c-53 -164 -110 -269 -168 -310 -30 -22 -34 -22 -65 -7 -64 31 -152 195 -195 363 l-10 41 -60 0 -61 0 7 -31z m96 -43 c8 -21 23 -60 33 -88 35 -100 80 -179 127 -228 26 -27 48 -46 48 -42 0 4 6 3 13 -3 15 -12 54 -6 83 13 59 38 134 167 179 305 19 61 37 86 54 76 16 -10 14 -27 -13 -109 -39 -121 -108 -242 -165 -294 -81 -73 -145 -69 -233 14 -32 31 -58 60 -58 65 0 6 -8 22 -18 36 -33 47 -101 236 -102 280 0 28 37 11 52 -25z"/> <path d="M1745 1394 c11 -63 56 -188 95 -270 44 -91 127 -189 177 -211 149 -62 290 78 387 386 20 63 36 118 36 123 0 4 -26 8 -59 8 l-58 0 -33 -102 c-52 -166 -130 -294 -191 -313 -60 -19 -145 106 -215 315 l-31 94 -57 2 -58 2 7 -34z m82 -16 c10 -13 35 -80 39 -107 2 -8 21 -52 44 -98 47 -95 100 -160 148 -180 29 -12 37 -11 68 3 66 32 139 147 189 301 25 76 36 93 64 93 26 0 -7 -115 -71 -247 -77 -157 -173 -233 -260 -204 -84 28 -179 161 -228 321 -7 25 -17 49 -22 55 -4 5 -8 24 -8 42 0 34 18 44 37 21z"/> <path d="M797 1409 c-21 -13 -47 -61 -47 -90 0 -11 16 -37 35 -56 30 -30 40 -35 67 -29 64 13 100 73 77 128 -20 48 -88 72 -132 47z m91 -41 c30 -30 3 -98 -39 -98 -50 0 -73 41 -53 94 7 19 74 22 92 4z"/> <path d="M2029 1391 c-50 -51 -32 -129 35 -151 63 -20 116 22 116 91 0 29 -7 43 -31 63 -41 35 -83 34 -120 -3z m111 -30 c26 -49 -1 -94 -53 -89 -44 4 -67 45 -47 82 11 21 21 26 51 26 28 0 41 -5 49 -19z"/> <path d="M1351 1399 c-102 -41 -152 -163 -101 -247 27 -44 70 -68 159 -87 164 -35 201 -56 205 -116 8 -107 -200 -149 -285 -58 -15 17 -29 44 -31 61 -3 30 -5 32 -46 33 l-44 1 6 -45 c9 -71 63 -135 135 -159 19 -7 70 -12 115 -12 150 0 236 68 236 187 0 91 -63 148 -189 173 -94 19 -159 39 -175 56 -9 9 -16 32 -16 54 0 30 6 43 31 64 30 26 59 31 129 26 65 -4 120 -50 120 -100 0 -19 5 -21 43 -18 40 3 42 4 38 33 -8 71 -57 129 -130 153 -40 14 -166 15 -200 1z m205 -39 c50 -22 67 -39 83 -82 7 -19 7 -28 0 -28 -6 0 -16 13 -21 28 -12 32 -68 73 -113 84 -16 4 -55 5 -85 1 -46 -5 -61 -12 -92 -43 -33 -32 -38 -44 -38 -82 0 -77 38 -102 207 -139 54 -12 110 -30 124 -40 50 -35 58 -144 16 -199 -42 -55 -209 -78 -288 -41 -60 29 -73 41 -88 78 -19 46 -8 65 14 23 9 -19 26 -45 38 -57 30 -33 110 -57 172 -50 53 5 147 45 147 63 0 5 4 19 9 32 31 81 -32 144 -178 178 -174 39 -195 54 -194 140 0 65 31 115 84 138 49 22 147 20 203 -4z"/> <path d="M705 825 c-114 -24 -202 -75 -247 -142 -45 -66 -42 -75 25 -75 49 0 63 4 85 25 53 51 137 80 243 85 137 6 243 -22 309 -83 19 -18 38 -24 80 -25 30 -1 58 -1 63 -1 14 2 -32 76 -70 112 -104 100 -309 143 -488 104z m262 -29 c110 -24 233 -99 233 -143 0 -22 -45 -8 -89 28 -20 16 -43 29 -51 29 -9 0 -20 4 -26 10 -5 5 -44 17 -87 25 -64 14 -92 15 -168 5 -96 -11 -144 -29 -219 -80 -25 -16 -50 -30 -57 -30 -25 0 -24 23 3 52 89 93 295 140 461 104z"/> <path d="M1952 825 c-125 -27 -224 -90 -263 -166 -10 -21 -19 -42 -19 -46 0 -4 27 -7 60 -6 54 1 65 5 100 37 114 103 418 101 530 -4 25 -23 41 -29 90 -32 33 -1 60 1 60 5 0 24 -37 81 -72 113 -108 97 -307 138 -486 99z m319 -44 c92 -31 190 -105 175 -130 -11 -17 -40 -8 -76 22 -109 92 -346 108 -500 35 -25 -12 -54 -30 -65 -39 -28 -23 -62 -32 -70 -19 -11 17 51 76 109 104 59 28 76 33 131 42 22 3 42 8 45 11 11 12 199 -8 251 -26z"/> <path d="M995 455 c-40 -39 -28 -63 42 -85 53 -17 67 -42 33 -60 -29 -15 -67 -5 -75 20 -7 22 -25 27 -25 7 0 -30 28 -52 68 -52 49 0 72 18 72 56 0 32 -15 43 -73 53 -32 6 -38 11 -35 29 4 28 64 38 74 13 3 -9 12 -16 20 -16 26 0 12 30 -23 49 -33 17 -51 14 -78 -14z"/> <path d="M304 380 c20 -59 36 -90 46 -90 10 0 26 31 47 90 25 70 29 90 17 90 -9 0 -22 -27 -36 -75 -12 -41 -24 -75 -28 -75 -3 0 -15 34 -28 75 -14 46 -28 75 -36 75 -10 0 -6 -22 18 -90z"/> <path d="M460 455 c0 -8 5 -15 10 -15 6 0 10 7 10 15 0 8 -4 15 -10 15 -5 0 -10 -7 -10 -15z"/> <path d="M1665 383 c18 -48 39 -89 47 -91 8 -2 23 25 42 75 16 43 31 84 33 91 3 6 -1 12 -9 12 -9 0 -23 -28 -38 -75 -13 -42 -27 -72 -31 -68 -4 5 -16 37 -26 73 -12 41 -25 66 -35 68 -13 3 -10 -13 17 -85z"/> <path d="M1822 459 c2 -6 8 -10 13 -10 5 0 11 4 13 10 2 6 -4 11 -13 11 -9 0 -15 -5 -13 -11z"/> <path d="M2035 380 c0 -65 3 -90 13 -90 9 0 12 25 12 90 0 65 -3 90 -12 90 -10 0 -13 -25 -13 -90z"/> <path d="M705 420 c-4 -6 -15 -8 -26 -5 -17 6 -19 1 -19 -59 0 -76 17 -90 22 -18 2 38 7 49 26 57 12 5 22 13 22 17 0 13 -19 18 -25 8z"/> <path d="M1174 419 c-23 -8 -40 -39 -22 -39 6 0 16 7 23 16 8 11 19 14 33 10 36 -12 25 -32 -20 -42 -36 -8 -43 -13 -46 -36 -4 -33 25 -52 60 -39 14 5 31 5 40 0 11 -6 19 -5 23 1 3 5 2 10 -4 10 -5 0 -11 26 -13 57 -3 51 -5 57 -28 63 -14 4 -35 4 -46 -1z m56 -84 c0 -21 -47 -42 -62 -27 -6 6 -8 18 -5 26 8 21 67 22 67 1z"/> <path d="M1468 422 c-22 -4 -33 -39 -19 -56 6 -8 25 -16 42 -20 22 -4 30 -11 27 -23 -4 -23 -46 -30 -54 -9 -3 9 -13 16 -20 16 -11 0 -12 -4 -4 -19 20 -39 80 -38 101 1 13 25 2 38 -44 54 -34 11 -43 37 -16 42 9 2 24 -5 33 -14 19 -18 32 -13 23 9 -6 15 -41 25 -69 19z"/> <path d="M2132 419 c-22 -8 -42 -44 -42 -75 0 -19 45 -64 63 -64 20 0 64 37 55 46 -5 4 -17 -1 -29 -11 -22 -21 -51 -12 -57 19 -3 13 5 16 42 16 38 0 46 3 46 18 0 39 -39 65 -78 51z m58 -44 c0 -10 -11 -15 -35 -15 -38 0 -48 22 -18 39 21 11 53 -3 53 -24z"/> <path d="M460 355 c0 -37 4 -65 10 -65 6 0 10 28 10 65 0 37 -4 65 -10 65 -6 0 -10 -28 -10 -65z"/> <path d="M513 408 c3 -7 14 -37 23 -66 12 -35 23 -52 32 -50 21 4 67 128 48 128 -9 0 -19 -20 -27 -50 -7 -27 -16 -50 -20 -50 -4 0 -13 23 -20 50 -8 30 -18 50 -27 50 -7 0 -11 -6 -9 -12z"/> <path d="M750 401 c-26 -50 3 -121 50 -121 24 0 70 42 52 48 -7 2 -19 -4 -28 -12 -18 -19 -36 -20 -52 -4 -26 26 -13 38 38 38 54 0 61 10 34 48 -20 29 -79 31 -94 3z m74 -7 c22 -22 11 -34 -30 -34 -37 0 -43 10 -18 34 19 20 29 20 48 0z"/> <path d="M1290 353 c0 -49 3 -63 15 -63 11 0 15 12 15 49 0 52 16 76 44 65 12 -5 16 -19 16 -60 0 -31 4 -54 10 -54 7 0 10 24 8 63 l-3 62 -52 1 -53 1 0 -64z"/> <path d="M1820 355 c0 -45 4 -65 13 -65 8 0 12 20 12 65 0 45 -4 65 -12 65 -9 0 -13 -20 -13 -65z"/> <path d="M1890 401 c-38 -72 24 -147 83 -100 33 25 37 77 9 102 -26 24 -79 22 -92 -2z m74 -7 c30 -30 10 -94 -29 -94 -17 0 -35 31 -35 59 0 20 24 51 40 51 5 0 16 -7 24 -16z"/> <path d="M2250 353 c0 -35 4 -63 10 -63 6 0 10 22 10 50 0 37 4 52 18 58 31 17 42 3 42 -54 0 -41 4 -54 15 -54 11 0 15 12 15 46 0 69 -12 84 -65 82 l-45 -1 0 -64z"/> <path d="M2400 401 c-24 -46 2 -121 43 -121 21 0 57 30 57 47 0 14 -4 13 -23 -5 -30 -28 -45 -28 -58 2 -17 36 -4 76 24 76 13 0 28 -5 35 -12 17 -17 28 -2 12 17 -18 22 -77 19 -90 -4z"/> <path d="M2540 401 c-18 -35 -12 -88 12 -105 12 -9 28 -16 34 -16 18 0 60 37 52 45 -4 4 -14 0 -23 -9 -19 -19 -37 -20 -53 -4 -26 26 -13 38 39 38 48 0 50 1 43 23 -11 36 -25 47 -60 47 -23 0 -37 -6 -44 -19z m68 -3 c23 -23 13 -38 -23 -38 -39 0 -48 21 -17 39 22 13 26 13 40 -1z"/> </g> </svg> 